# xmcd
# Copyright (C) 1995-1998 Ti Kan
#
# Track frame offsets:
#       150
#       13503
#       27192
#       43848
#       60828
#       78315
#       86402
#       100122
#       117824
#       138218
#       149088
#
# Disc length: 2154 seconds
#
# Revision: 0
# Processed by: cddbd v1.5.2PL0 Copyright (c) Steve Scherf et al.
# Submitted via: CD-Import v1.0
#
DISCID=8308680b
DTITLE=Fiona Daniel - Drowning
DYEAR=10
DGENRE=
TTITLE0=War
TTITLE1=Moon
TTITLE2=Wrong Way
TTITLE3=Symbol Of Love
TTITLE4=They Got You
TTITLE5=Within A Minute
TTITLE6=Mrs. Lonelyheart
TTITLE7=Afterglow
TTITLE8=Is It Ok?
TTITLE9=Daniel
TTITLE10=Drowning
EXTD=
EXTT0=
EXTT1=
EXTT2=
EXTT3=
EXTT4=
EXTT5=
EXTT6=
EXTT7=
EXTT8=
EXTT9=
EXTT10=
PLAYORDER=
